<svg xmlns="http://www.w3.org/2000/svg" width="1148" height="1254" viewBox="0 0 1148 1254" fill="none">
  <path d="M 824.00 1098.50 L 818.50 1096.00 L 809.00 1072.50 L 747.00 1072.50 L 633.00 1056.50 L 445.00 1016.50 L 355.50 992.00 L 392.00 992.50 L 488.00 1001.50 L 626.00 1017.50 L 727.00 1034.50 L 775.00 1046.50 L 800.00 1056.50 L 801.50 1054.00 L 790.00 1032.50 L 741.00 1031.50 L 635.00 1012.50 L 486.00 973.50 L 387.50 943.00 L 436.00 946.50 L 631.00 976.50 L 746.00 1002.50 L 780.00 1016.50 L 782.50 1016.00 L 781.50 1011.00 L 729.00 993.50 L 628.00 943.50 L 516.00 916.50 L 387.50 878.00 L 429.00 880.50 L 543.50 897.00 L 535.00 890.50 L 527.00 889.50 L 519.00 881.50 L 450.00 840.50 L 363.00 815.50 L 380.00 814.50 L 461.00 825.50 L 411.00 800.50 L 426.00 801.50 L 433.00 806.50 L 470.00 814.50 L 556.00 841.50 L 643.00 857.50 L 702.00 875.50 L 705.50 873.00 L 699.00 865.50 L 655.00 858.50 L 574.00 831.50 L 431.00 769.50 L 317.00 738.50 L 299.50 731.00 L 359.00 736.50 L 477.00 753.50 L 587.00 774.50 L 652.00 796.50 L 654.50 795.00 L 639.00 773.50 L 598.00 772.50 L 515.00 757.50 L 375.00 721.50 L 299.00 697.50 L 322.00 697.50 L 477.00 720.50 L 585.00 742.50 L 616.00 751.50 L 624.00 756.50 L 626.50 755.00 L 608.00 729.50 L 584.00 727.50 L 529.00 711.50 L 422.00 671.50 L 381.00 651.50 L 229.00 608.50 L 228.00 606.50 L 236.00 606.50 L 283.00 613.50 L 292.00 613.50 L 288.50 610.00 L 291.00 608.50 L 339.00 621.50 L 430.00 634.50 L 492.00 647.50 L 558.50 667.00 L 534.00 639.50 L 474.00 635.50 L 384.00 617.50 L 278.00 588.50 L 216.50 568.00 L 231.00 567.50 L 414.00 595.50 L 487.00 611.50 L 516.00 622.50 L 519.50 622.00 L 509.00 610.50 L 474.00 604.50 L 413.00 582.50 L 352.00 576.50 L 223.00 555.50 L 220.00 552.50 L 348.00 554.50 L 329.00 547.50 L 285.00 543.50 L 161.00 521.50 L 222.00 519.50 L 277.00 522.50 L 250.00 509.50 L 241.50 504.00 L 244.00 502.50 L 313.00 523.50 L 394.00 530.50 L 441.50 540.00 L 426.00 527.50 L 367.00 522.50 L 248.00 489.50 L 131.00 470.50 L 178.00 468.50 L 148.00 458.50 L 149.00 455.50 L 197.00 464.50 L 208.00 463.50 L 239.00 471.50 L 317.00 475.50 L 381.50 485.00 L 364.00 470.50 L 338.00 470.50 L 285.00 461.50 L 145.00 421.50 L 102.00 405.50 L 76.00 400.50 L 153.00 400.50 L 53.00 388.50 L 176.00 384.50 L 259.50 391.00 L 242.00 378.50 L 228.00 381.50 L 181.00 381.50 L 71.00 369.50 L 65.50 367.00 L 73.00 365.50 L 121.00 364.50 L 190.00 365.50 L 221.00 369.50 L 226.00 369.50 L 225.00 367.50 L 215.00 362.50 L 181.00 362.50 L 104.00 348.50 L 36.00 340.50 L 34.50 339.00 L 39.00 337.50 L 51.50 337.00 L 32.00 332.50 L 32.00 329.50 L 114.00 337.50 L 178.50 340.00 L 170.00 334.50 L 143.00 335.50 L 79.00 326.50 L 9.50 310.00 L 126.50 318.00 L 86.00 304.50 L 15.50 271.00 L 53.00 279.50 L 102.00 296.50 L 105.50 295.00 L 73.50 249.00 L 42.00 190.50 L 81.50 236.00 L 79.50 237.00 L 112.50 283.00 L 121.50 304.00 L 140.00 313.50 L 128.50 290.00 L 99.50 256.00 L 96.50 248.00 L 63.50 204.00 L 66.00 202.50 L 70.00 205.50 L 104.00 241.50 L 107.50 242.00 L 78.50 171.00 L 76.50 162.00 L 79.50 163.00 L 112.50 221.00 L 141.50 282.00 L 163.00 307.50 L 164.50 305.00 L 120.50 200.00 L 114.00 174.50 L 136.50 215.00 L 144.50 223.00 L 148.50 233.00 L 156.50 241.00 L 198.50 306.00 L 220.50 346.00 L 224.50 361.00 L 234.00 369.50 L 187.50 266.00 L 168.50 215.00 L 167.50 211.00 L 170.00 209.50 L 225.50 312.00 L 244.50 356.00 L 248.50 377.00 L 266.00 389.50 L 267.50 387.00 L 256.50 371.00 L 228.50 309.00 L 182.50 191.00 L 184.00 186.50 L 187.50 190.00 L 226.50 263.00 L 219.50 244.00 L 220.00 241.50 L 226.50 248.00 L 276.50 321.00 L 316.00 388.50 L 316.50 384.00 L 256.50 236.00 L 259.00 231.50 L 304.50 312.00 L 343.50 390.00 L 358.50 424.00 L 369.50 466.00 L 383.00 478.50 L 385.50 477.00 L 372.50 451.00 L 357.50 401.00 L 324.50 334.00 L 328.50 335.00 L 342.00 353.50 L 342.50 349.00 L 316.50 252.00 L 318.50 251.00 L 322.50 259.00 L 353.50 331.00 L 386.50 422.00 L 407.50 452.00 L 422.00 479.50 L 389.50 370.00 L 367.50 277.00 L 380.50 301.00 L 413.50 381.00 L 433.50 438.00 L 436.50 439.00 L 434.50 430.00 L 417.50 374.00 L 411.50 344.00 L 414.50 345.00 L 435.50 391.00 L 474.00 491.50 L 462.50 428.00 L 456.50 416.00 L 456.50 406.00 L 446.50 371.00 L 446.50 366.00 L 449.00 368.50 L 450.50 365.00 L 439.50 305.00 L 441.00 297.50 L 484.50 429.00 L 503.50 500.00 L 532.50 583.00 L 540.50 633.00 L 546.00 637.50 L 533.50 539.00 L 527.50 368.00 L 530.50 362.00 L 535.50 385.00 L 554.50 517.00 L 572.00 557.50 L 578.50 425.00 L 582.00 403.50 L 592.50 498.00 L 597.50 623.00 L 609.50 651.00 L 624.50 701.00 L 631.50 745.00 L 639.50 756.00 L 642.00 758.50 L 642.50 754.00 L 634.50 717.00 L 627.50 631.00 L 623.50 465.00 L 625.50 463.00 L 628.50 475.00 L 641.50 550.00 L 656.50 670.00 L 658.50 674.00 L 658.50 652.00 L 655.50 538.00 L 657.00 536.50 L 659.50 541.00 L 679.50 668.00 L 687.50 748.00 L 693.50 759.00 L 710.50 816.00 L 712.50 817.00 L 712.50 655.00 L 716.50 569.00 L 719.50 561.00 L 729.50 638.00 L 729.50 659.00 L 735.50 683.00 L 753.50 805.00 L 761.00 885.50 L 774.50 772.00 L 801.50 617.00 L 804.50 617.00 L 804.50 643.00 L 801.00 744.50 L 818.50 624.00 L 824.50 604.00 L 825.50 727.00 L 818.50 884.00 L 806.50 974.00 L 795.50 1009.00 L 813.00 1044.50 L 813.50 989.00 L 824.50 879.00 L 844.50 749.00 L 865.50 643.00 L 863.50 781.00 L 857.50 898.00 L 842.50 1024.00 L 827.50 1074.00 L 832.50 1094.00 L 824.00 1098.50 Z" fill="#000000"/>
</svg>
